<mxfile host="app.diagrams.net" modified="2024-04-06T02:08:12.068Z" agent="Mozilla/5.0 (Windows NT 10.0; Win64; x64) AppleWebKit/537.36 (KHTML, like Gecko) Chrome/123.0.0.0 Safari/537.36" version="24.2.2" etag="XN5fbUkJtcb8l-eBDyWE" type="github">
  <diagram name="PÃ¡gina-1" id="GPYDVpW25vWim30I-We3">
    <mxGraphModel>
      <root>
        <mxCell id="0" />
        <mxCell id="1" parent="0" />
      </root>
    </mxGraphModel>
  </diagram>
</mxfile>
